<svg width="21" height="20" viewBox="0 0 21 20" fill="none" xmlns="http://www.w3.org/2000/svg">
    <path d="M18.442 6.06729L8.44205 16.0673C8.384 16.1254 8.31507 16.1715 8.2392 16.203C8.16332 16.2344 8.08199 16.2506 7.99986 16.2506C7.91772 16.2506 7.8364 16.2344 7.76052 16.203C7.68465 16.1715 7.61572 16.1254 7.55767 16.0673L3.18267 11.6923C3.0654 11.575 2.99951 11.416 2.99951 11.2501C2.99951 11.0843 3.0654 10.9252 3.18267 10.8079C3.29995 10.6906 3.45901 10.6248 3.62486 10.6248C3.79071 10.6248 3.94977 10.6906 4.06705 10.8079L7.99986 14.7415L17.5577 5.18292C17.6749 5.06564 17.834 4.99976 17.9999 4.99976C18.1657 4.99976 18.3248 5.06564 18.442 5.18292C18.5593 5.30019 18.6252 5.45925 18.6252 5.6251C18.6252 5.79096 18.5593 5.95002 18.442 6.06729Z" fill="white"/>
</svg>
